HIERARCHY
ROOT hip
{
  OFFSET 0 0 0
  CHANNELS 6 Xposition Yposition Zposition Zrotation Yrotation Xrotation
  JOINT abdomen
  {
    OFFSET 0 20.6881 -0.73152
    CHANNELS 3 Zrotation Xrotation Yrotation
    JOINT chest
    {
      OFFSET 0 11.7043 -0.48768
      CHANNELS 3 Zrotation Xrotation Yrotation
      JOINT neck
      {
        OFFSET 0 22.1894 -2.19456
        CHANNELS 3 Zrotation Xrotation Yrotation
        JOINT head
        {
          OFFSET -0.24384 7.07133 1.2192
          CHANNELS 3 Zrotation Xrotation Yrotation
          JOINT leftEye
          {
            OFFSET 4.14528 8.04674 8.04672
            CHANNELS 3 Zrotation Xrotation Yrotation
            End Site
            {
              OFFSET 1 0 0
            }
          }
          JOINT rightEye
          {
            OFFSET -3.6576 8.04674 8.04672
            CHANNELS 3 Zrotation Xrotation Yrotation
            End Site
            {
              OFFSET 1 0 0
            }
          }
        }
      }
      JOINT rCollar
      {
        OFFSET -2.68224 19.2634 -4.8768
        CHANNELS 3 Zrotation Xrotation Yrotation
        JOINT rShldr
        {
          OFFSET -8.77824 -1.95073 1.46304
          CHANNELS 3 Zrotation Xrotation Yrotation
          JOINT rForeArm
          {
            OFFSET -28.1742 -1.7115 0.48768
            CHANNELS 3 Zrotation Xrotation Yrotation
            JOINT rHand
            {
              OFFSET -22.5879 0.773209 7.07136
              CHANNELS 3 Zrotation Xrotation Yrotation
              JOINT rThumb1
              {
                OFFSET -1.2192 -0.487915 3.41376
                CHANNELS 3 Zrotation Xrotation Yrotation
                JOINT rThumb2
                {
                  OFFSET -3.37035 -0.52449 3.41376
                  CHANNELS 3 Zrotation Xrotation Yrotation
                  End Site
                  {
                    OFFSET -1.78271 -1.18214 1.43049
                  }
                }
              }
              JOINT rIndex1
              {
                OFFSET -7.75947 0.938293 5.60832
                CHANNELS 3 Zrotation Xrotation Yrotation
                JOINT rIndex2
                {
                  OFFSET -2.54057 -0.884171 1.56538
                  CHANNELS 3 Zrotation Xrotation Yrotation
                  End Site
                  {
                    OFFSET -1.62519 -0.234802 1.16502
                  }
                }
              }
              JOINT rMid1
              {
                OFFSET -8.24714 1.18213 3.41376
                CHANNELS 3 Zrotation Xrotation Yrotation
                JOINT rMid2
                {
                  OFFSET -3.10165 -0.590103 1.0647
                  CHANNELS 3 Zrotation Xrotation Yrotation
                  End Site
                  {
                    OFFSET -2.48547 -0.328903 0.83742
                  }
                }
              }
              JOINT rRing1
              {
                OFFSET -8.82822 0.546677 1.51678
                CHANNELS 3 Zrotation Xrotation Yrotation
                JOINT rRing2
                {
                  OFFSET -2.60934 -0.819778 -0.0198488
                  CHANNELS 3 Zrotation Xrotation Yrotation
                  End Site
                  {
                    OFFSET -2.33842 -0.294052 0.168128
                  }
                }
              }
              JOINT rPinky1
              {
                OFFSET -8.27202 -0.0477905 -0.4584
                CHANNELS 3 Zrotation Xrotation Yrotation
                JOINT rPinky2
                {
                  OFFSET -1.82734 -0.647385 -0.700984
                  CHANNELS 3 Zrotation Xrotation Yrotation
                  End Site
                  {
                    OFFSET -1.69225 -0.51767 -0.607171
                  }
                }
              }
            }
          }
        }
      }
      JOINT lCollar
      {
        OFFSET 2.68224 19.2634 -4.8768
        CHANNELS 3 Zrotation Xrotation Yrotation
        JOINT lShldr
        {
          OFFSET 8.77824 -1.95073 1.46304
          CHANNELS 3 Zrotation Xrotation Yrotation
          JOINT lForeArm
          {
            OFFSET 28.1742 -1.7115 0.48768
            CHANNELS 3 Zrotation Xrotation Yrotation
            JOINT lHand
            {
              OFFSET 22.5879 0.773209 7.07136
              CHANNELS 3 Zrotation Xrotation Yrotation
              JOINT lThumb1
              {
                OFFSET 1.2192 -0.487915 3.41376
                CHANNELS 3 Zrotation Xrotation Yrotation
                JOINT lThumb2
                {
                  OFFSET 3.37035 -0.52449 3.41376
                  CHANNELS 3 Zrotation Xrotation Yrotation
                  End Site
                  {
                    OFFSET 1.78271 -1.18214 1.43049
                  }
                }
              }
              JOINT lIndex1
              {
                OFFSET 7.75947 0.938293 5.60832
                CHANNELS 3 Zrotation Xrotation Yrotation
                JOINT lIndex2
                {
                  OFFSET 2.54057 -0.884171 1.56538
                  CHANNELS 3 Zrotation Xrotation Yrotation
                  End Site
                  {
                    OFFSET 1.62519 -0.234802 1.16502
                  }
                }
              }
              JOINT lMid1
              {
                OFFSET 8.24714 1.18213 3.41376
                CHANNELS 3 Zrotation Xrotation Yrotation
                JOINT lMid2
                {
                  OFFSET 3.10165 -0.590103 1.0647
                  CHANNELS 3 Zrotation Xrotation Yrotation
                  End Site
                  {
                    OFFSET 2.48547 -0.328903 0.83742
                  }
                }
              }
              JOINT lRing1
              {
                OFFSET 8.82822 0.546677 1.51678
                CHANNELS 3 Zrotation Xrotation Yrotation
                JOINT lRing2
                {
                  OFFSET 2.60934 -0.819778 -0.0198488
                  CHANNELS 3 Zrotation Xrotation Yrotation
                  End Site
                  {
                    OFFSET 2.33842 -0.294052 0.168128
                  }
                }
              }
              JOINT lPinky1
              {
                OFFSET 8.27202 -0.0477905 -0.4584
                CHANNELS 3 Zrotation Xrotation Yrotation
                JOINT lPinky2
                {
                  OFFSET 1.82734 -0.647385 -0.700984
                  CHANNELS 3 Zrotation Xrotation Yrotation
                  End Site
                  {
                    OFFSET 1.69225 -0.51767 -0.607171
                  }
                }
              }
            }
          }
        }
      }
    }
  }
  JOINT rButtock
  {
    OFFSET -8.77824 4.35084 1.2192
    CHANNELS 3 Zrotation Xrotation Yrotation
    JOINT rThigh
    {
      OFFSET 0 -1.70687 -2.19456
      CHANNELS 3 Zrotation Xrotation Yrotation
      JOINT rShin
      {
        OFFSET 0 -36.8199 0.73152
        CHANNELS 3 Zrotation Xrotation Yrotation
        JOINT rFoot
        {
          OFFSET 0.73152 -45.1104 -5.12064
          CHANNELS 3 Zrotation Xrotation Yrotation
          End Site
          {
            OFFSET -1.1221 -3.69964 12.103
          }
        }
      }
    }
  }
  JOINT lButtock
  {
    OFFSET 8.77824 4.35084 1.2192
    CHANNELS 3 Zrotation Xrotation Yrotation
    JOINT lThigh
    {
      OFFSET 0 -1.70687 -2.19456
      CHANNELS 3 Zrotation Xrotation Yrotation
      JOINT lShin
      {
        OFFSET 0 -36.8199 0.73152
        CHANNELS 3 Zrotation Xrotation Yrotation
        JOINT lFoot
        {
          OFFSET -0.73152 -45.1104 -5.12064
          CHANNELS 3 Zrotation Xrotation Yrotation
          End Site
          {
            OFFSET 1.1221 -3.69964 12.103
          }
        }
      }
    }
  }
}
MOTION
Frames:	4
Frame Time:	0.03333
7.471600017626185 61.9214021850684 -9.955100070283496 165.7830047607422 -38.09799575805664 -167.26199340820312 -3.2764499187469482 25.265199661254883 0.18975907564163208 4.878890037536621 -12.008101463317871 0.24399396777153015 -8.336750030517578 15.737000465393066 -9.920000076293945 2.444700241088867 -27.73219871520996 -19.163599014282227 -0.0 0.0 -0.0 -0.0 0.0 -0.0 5.082039932109705e-13 -7.547589398089471e-14 -1.100200009221397e-12 51.34189224243164 -4.400540351867676 44.70219802856445 -27.43819808959961 -27.93020248413086 63.952293395996094 -10.300800323486328 -63.69100570678711 -16.513795852661133 5.477930109520912e-09 3.0520499905151155e-08 -5.10750020055184e-09 9.65808943931279e-09 5.123929724959453e-08 -8.493429959344212e-09 5.477940323572739e-09 3.0520499905151155e-08 -5.107520184566283e-09 7.730909824371338 5.474879741668701 0.4173140823841095 5.477930109520912e-09 3.0520499905151155e-08 -5.107509970514457e-09 2.9055399894714355 0.9651829600334167 0.10290199518203735 5.477940323572739e-09 3.0520499905151155e-08 -5.107509970514457e-09 10.27859878540039 0.73180091381073 0.025912316516041756 5.477930109520912e-09 3.0520499905151155e-08 -5.107509970514457e-09 2.221669912338257 -0.733487069606781 -0.208919957280159 5.081769965768757e-13 -7.545059818895791e-14 -1.1004799502223328e-12 8.137730598449707 -41.96820068359375 -41.55270004272461 28.249300003051758 -38.842803955078125 -81.85009765625 4.536290168762207 -50.12190628051758 9.683730125427246 -4.377979756498007e-09 1.0467400279878802e-08 -4.075139781178905e-09 -7.371429688873832e-09 1.8046000249682947e-08 -7.193690088058702e-09 -4.377979756498007e-09 1.0467400279878802e-08 -4.075130011216288e-09 -7.730909824371338 5.474879741668701 -0.4173140823841095 -4.377979756498007e-09 1.0467400279878802e-08 -4.075149995230731e-09 -2.9055399894714355 0.9651829600334167 -0.10290199518203735 -4.377989970549834e-09 1.0467400279878802e-08 -4.075149995230731e-09 -10.27859878540039 0.73180091381073 -0.025912316516041756 -4.377979756498007e-09 1.0467400279878802e-08 -4.075159765193348e-09 -2.221669912338257 -0.733487069606781 0.208919957280159 -2.0321699480147914e-16 0.0 -3.8825099822884138e-19 -84.57019805908203 -62.6378059387207 -72.4806900024414 -6.051390647888184 80.84890747070312 5.933940887451172 -2.207119941711426 -0.3635609745979309 -6.245009899139404 2.0321699480147914e-16 0.0 3.8825099822884138e-19 19.17650032043457 -0.9441798329353333 6.126230239868164 0.036748092621564865 40.8733024597168 -2.405400276184082 12.465899467468262 -16.51799964904785 27.61469841003418
8.920400000853721 62.417396862216386 -10.869200081718757 165.09498596191406 -40.380008697509766 -165.83700561523438 -2.9828197956085205 25.65160369873047 0.6710999011993408 4.208369255065918 -11.956400871276855 0.31393298506736755 -7.999631404876709 15.379401206970215 -9.21886920928955 1.3877999782562256 -27.81500244140625 -18.021699905395508 -0.0 0.0 -0.0 -0.0 0.0 -0.0 3.5139699852172745e-13 -1.4109399649878725e-14 -7.024820178683222e-13 49.7864990234375 -4.0448689460754395 45.03770065307617 -27.479299545288086 -28.095603942871094 64.2155990600586 -9.754899978637695 -62.8468132019043 -15.902700424194336 4.045789925299914e-09 1.4076599441636972e-08 -2.820119693325296e-09 7.084969944060049e-09 2.338569871085383e-08 -4.642939810395319e-09 4.045799695262531e-09 1.4076599441636972e-08 -2.820139899384344e-09 7.730909824371338 5.474879741668701 0.4173140823841095 4.045789925299914e-09 1.4076599441636972e-08 -2.820119693325296e-09 2.9055399894714355 0.9651829600334167 0.10290199518203735 4.0458094652251475e-09 1.4076599441636972e-08 -2.820119693325296e-09 10.27859878540039 0.73180091381073 0.025912316516041756 4.045789925299914e-09 1.4076599441636972e-08 -2.820119693325296e-09 2.221669912338257 -0.733487069606781 -0.208919957280159 3.5128998776730314e-13 -1.406859976687538e-14 -7.026970151591261e-13 7.038659572601318 -39.76789855957031 -40.23419952392578 28.105701446533203 -39.84660720825195 -83.62589263916016 4.3350701332092285 -49.34900665283203 9.42002010345459 -2.3404900240109328e-09 5.195339713992553e-09 -1.518539960443377e-09 -3.968560147171729e-09 9.009159640527287e-09 -2.712220004141841e-09 -2.3404900240109328e-09 5.195350372133589e-09 -1.518539960443377e-09 -7.730909824371338 5.474879741668701 -0.4173140823841095 -2.3404900240109328e-09 5.195339713992553e-09 -1.518539960443377e-09 -2.9055399894714355 0.9651829600334167 -0.10290199518203735 -2.3404900240109328e-09 5.195350372133589e-09 -1.518539960443377e-09 -10.27859878540039 0.73180091381073 -0.025912316516041756 -2.340480032003711e-09 5.195350372133589e-09 -1.5185499524505985e-09 -2.221669912338257 -0.733487069606781 0.208919957280159 -2.0321699480147914e-16 0.0 -3.8825099822884138e-19 -83.45159912109375 -63.17060852050781 -71.33999633789062 -6.285389423370361 81.07630157470703 6.097439765930176 -2.327349901199341 -3.1001904010772705 -4.265120029449463 2.0321699480147914e-16 0.0 3.8825099822884138e-19 19.49110221862793 -2.3266103267669678 3.669879674911499 0.013118799775838852 38.77840042114258 -2.269850254058838 11.014799118041992 -15.062301635742188 26.277996063232422
10.594299967236427 62.9278032385131 -11.946400101335458 164.17298889160156 -42.840999603271484 -164.2650146484375 -3.3086798191070557 26.189098358154297 1.2259800434112549 3.7705798149108887 -12.021200180053711 0.3942880630493164 -7.574009418487549 14.788200378417969 -8.521499633789062 0.3765159547328949 -27.645702362060547 -16.845897674560547 -0.0 0.0 -0.0 -0.0 0.0 -0.0 2.444869935842864e-13 -1.0962499625514349e-13 -3.3809497627761143e-13 48.760799407958984 -3.759921073913574 45.14599609375 -27.508996963500977 -28.219100952148438 64.41679382324219 -9.384690284729004 -62.2373046875 -15.485198974609375 2.851289648830857e-09 4.353459814865346e-09 -1.2904000090685486e-09 4.958139676602968e-09 6.986339506909189e-09 -2.0784400867057684e-09 2.851289648830857e-09 4.353459814865346e-09 -1.2904098900534677e-09 7.730909824371338 5.474879741668701 0.4173140823841095 2.851289648830857e-09 4.353459814865346e-09 -1.2904000090685486e-09 2.9055399894714355 0.9651829600334167 0.10290199518203735 2.8512998628826836e-09 4.353459814865346e-09 -1.2904000090685486e-09 10.27859878540039 0.73180091381073 0.025912316516041756 2.8512798788682403e-09 4.353459814865346e-09 -1.290390017061327e-09 2.221669912338257 -0.733487069606781 -0.208919957280159 2.4431100046663767e-13 -1.096109897183277e-13 -3.383120064474887e-13 5.979238986968994 -37.22529602050781 -39.292301177978516 27.938098907470703 -40.7245979309082 -85.23490142822266 4.217000484466553 -48.874298095703125 9.26318073272705 -1.3483798522173629e-09 2.241699936789132e-09 -1.0365299590864296e-10 -2.3184199005044093e-09 3.957169703028285e-09 -2.364760054440751e-10 -1.3483798522173629e-09 2.2417099287963538e-09 -1.0365398817047122e-10 -7.730909824371338 5.474879741668701 -0.4173140823841095 -1.3483798522173629e-09 2.241699936789132e-09 -1.0365398817047122e-10 -2.9055399894714355 0.9651829600334167 -0.10290199518203735 -1.3483798522173629e-09 2.241699936789132e-09 -1.036519967079208e-10 -10.27859878540039 0.73180091381073 -0.025912316516041756 -1.3483699712324437e-09 2.241699936789132e-09 -1.0365600044970336e-10 -2.221669912338257 -0.733487069606781 0.208919957280159 -2.0321699480147914e-16 0.0 -3.8825099822884138e-19 -81.82830047607422 -64.0219955444336 -69.51589965820312 -6.525259494781494 81.27761840820312 6.2445502281188965 -2.5264699459075928 -5.167731285095215 -3.491830348968506 2.0321699480147914e-16 0.0 3.8825099822884138e-19 20.005401611328125 -4.08158016204834 1.355699896812439 -0.009577150456607342 36.80170440673828 -2.1352999210357666 9.153230667114258 -12.920801162719727 24.4534969329834
12.410999872535355 63.49029663742033 -13.215500048655779 162.8939971923828 -45.759002685546875 -162.2449951171875 -4.261291027069092 26.876598358154297 1.857810139656067 3.5660698413848877 -12.2027006149292 0.4851739704608917 -7.0513200759887695 13.96239948272705 -7.831028461456299 -0.6065459847450256 -27.220001220703125 -15.645099639892578 -0.0 0.0 -0.0 -0.0 0.0 -0.0 1.8747300261669209e-13 -3.620219629716509e-13 -7.035109646935265e-15 48.26829528808594 -3.5421321392059326 45.02619934082031 -27.528499603271484 -28.302000045776367 64.55509948730469 -9.166197776794434 -61.864498138427734 -15.237898826599121 1.8944097401885074e-09 1.3510598195765056e-09 -5.183399820474222e-10 3.2776199532236205e-09 2.041139923747437e-09 -7.999330087216094e-10 1.8944097401885074e-09 1.3510699226060296e-09 -5.183429796495886e-10 7.730909824371338 5.474879741668701 0.4173140823841095 1.8944097401885074e-09 1.3510598195765056e-09 -5.183409812481443e-10 2.9055399894714355 0.9651829600334167 0.10290199518203735 1.894419954240334e-09 1.3510598195765056e-09 -5.183390383578512e-10 10.27859878540039 0.73180091381073 0.025912316516041756 1.8943999702258907e-09 1.3510598195765056e-09 -5.183339868430892e-10 2.221669912338257 -0.733487069606781 -0.208919957280159 1.872419997913169e-13 -3.620779891189141e-13 -7.324749598633558e-15 4.994889736175537 -34.36759567260742 -38.7311897277832 27.7698974609375 -41.49980545043945 -86.6427993774414 4.174379348754883 -48.69850540161133 9.206079483032227 -1.401659899258334e-09 1.6064999330822616e-09 1.6952099446410074e-10 -2.4209898530358487e-09 2.8900797310882353e-09 2.3353999289987826e-10 -1.401659899258334e-09 1.6064999330822616e-09 1.6951999526337858e-10 -7.730909824371338 5.474879741668701 -0.4173140823841095 -1.401659899258334e-09 1.6064999330822616e-09 1.6952400594405503e-10 -2.9055399894714355 0.9651829600334167 -0.10290199518203735 -1.4016698912655556e-09 1.6064999330822616e-09 1.6952600434549936e-10 -10.27859878540039 0.73180091381073 -0.025912316516041756 -1.401659899258334e-09 1.6064999330822616e-09 1.6952400594405503e-10 -2.221669912338257 -0.733487069606781 0.208919957280159 -2.0321699480147914e-16 0.0 -3.8825099822884138e-19 -79.56529235839844 -65.16110229492188 -66.86399841308594 -6.768479347229004 81.45263671875 6.372738838195801 -2.9623003005981445 -6.5559306144714355 -3.9268500804901123 2.0321699480147914e-16 0.0 3.8825099822884138e-19 20.687297821044922 -6.202950477600098 -0.823188841342926 -0.03231009468436241 34.9430046081543 -2.000199794769287 7.006069660186768 -10.035799980163574 22.19839859008789
